<svg width="24" height="24" viewBox="0 0 24 24" fill="none" xmlns="http://www.w3.org/2000/svg">
<path d="M14.5 23.862C14.387 23.862 14.277 23.824 14.187 23.752C14.069 23.657 14 23.514 14 23.362V19.642C14 18.743 13.885 18.105 13.637 17.637C13.564 17.5 13.56 17.337 13.624 17.196C13.688 17.055 13.815 16.952 13.966 16.917C16.93 16.233 19 14.064 19 11.642C19 10.442 18.507 9.29697 17.575 8.32997C17.431 8.18097 17.394 7.95997 17.481 7.77197C17.853 6.96997 17.774 5.87797 17.333 5.22297C16.75 5.45097 15.993 5.92797 15.501 6.51197C15.367 6.67297 15.146 6.73197 14.947 6.65897C13.072 5.97097 10.929 5.97097 9.054 6.65897C8.857 6.73097 8.635 6.67297 8.5 6.51297C8.008 5.92897 7.251 5.45197 6.667 5.22397C6.226 5.87897 6.147 6.97097 6.519 7.77297C6.606 7.95997 6.569 8.18097 6.425 8.32997C5.493 9.29697 5 10.443 5 11.642C5 13.949 6.863 16.027 9.636 16.812C9.852 16.874 10 17.07 10 17.294V17.643C10 18.269 9.749 18.622 9.538 18.809C9.086 19.206 8.502 19.146 8.438 19.139C8.435 19.139 8.431 19.139 8.428 19.139C7.604 19.139 6.984 18.68 6.385 18.236C6.084 18.013 5.779 17.786 5.424 17.598C5.501 17.702 5.577 17.809 5.654 17.916C6.404 18.959 7.253 20.142 8.501 20.142H9.501C9.777 20.142 10.001 20.366 10.001 20.642V23.362C10.001 23.514 9.932 23.657 9.814 23.752C9.695 23.846 9.541 23.881 9.393 23.85C3.95 22.642 0 17.719 0 12.142C0 5.52497 5.383 0.141968 12 0.141968C18.617 0.141968 24 5.52497 24 12.142C24 17.718 20.05 22.642 14.608 23.85C14.572 23.858 14.536 23.862 14.5 23.862ZM14.758 17.741C14.922 18.258 15 18.878 15 19.642V22.72C19.671 21.394 23 17.043 23 12.142C23 6.07697 18.065 1.14197 12 1.14197C5.935 1.14197 1 6.07697 1 12.142C1 17.043 4.329 21.394 9 22.72V21.142H8.5C6.74 21.142 5.687 19.677 4.841 18.499C4.362 17.832 3.866 17.142 3.5 17.142C3.224 17.142 3 16.918 3 16.642C3 16.366 3.224 16.142 3.5 16.142C5.24 16.142 6.205 16.857 6.98 17.432C7.516 17.829 7.938 18.142 8.5 18.142C8.556 18.145 8.763 18.16 8.879 18.056C8.974 17.97 8.998 17.799 9 17.664C5.994 16.677 4 14.296 4 11.643C4 10.279 4.512 8.98297 5.484 7.87697C5.055 6.63397 5.32 5.11597 6.146 4.28897C6.271 4.16297 6.453 4.11197 6.627 4.15897C7.295 4.33597 8.287 4.85497 9.028 5.60997C10.933 4.98897 13.064 4.98897 14.969 5.60997C15.71 4.85497 16.702 4.33597 17.37 4.15897C17.543 4.11197 17.725 4.16197 17.851 4.28897C18.678 5.11597 18.942 6.63397 18.513 7.87597C19.488 8.98297 20 10.279 20 11.642C20 14.37 17.873 16.812 14.758 17.741Z" fill="white"/>
</svg>
