<svg width="50" height="50" viewBox="0 0 50 50" fill="none" xmlns="http://www.w3.org/2000/svg">
<path d="M30.2083 49.7124C29.9729 49.7124 29.7437 49.6333 29.5562 49.4833C29.3104 49.2854 29.1667 48.9874 29.1667 48.6708V40.9208C29.1667 39.0479 28.9271 37.7187 28.4104 36.7437C28.2583 36.4583 28.25 36.1187 28.3833 35.8249C28.5167 35.5312 28.7812 35.3166 29.0958 35.2437C35.2708 33.8187 39.5833 29.2999 39.5833 24.2541C39.5833 21.7541 38.5563 19.3687 36.6146 17.3541C36.3146 17.0437 36.2375 16.5833 36.4188 16.1916C37.1938 14.5208 37.0292 12.2458 36.1104 10.8812C34.8958 11.3562 33.3187 12.3499 32.2937 13.5666C32.0146 13.902 31.5542 14.0249 31.1396 13.8729C27.2333 12.4395 22.7687 12.4395 18.8625 13.8729C18.4521 14.0229 17.9896 13.902 17.7083 13.5687C16.6833 12.352 15.1062 11.3583 13.8896 10.8833C12.9708 12.2479 12.8062 14.5229 13.5812 16.1937C13.7625 16.5833 13.6854 17.0437 13.3854 17.3541C11.4437 19.3687 10.4167 21.7562 10.4167 24.2541C10.4167 29.0604 14.2979 33.3895 20.075 35.0249C20.525 35.1541 20.8333 35.5624 20.8333 36.0291V36.7562C20.8333 38.0604 20.3104 38.7958 19.8708 39.1854C18.9292 40.0124 17.7125 39.8874 17.5792 39.8729C17.5729 39.8729 17.5646 39.8729 17.5583 39.8729C15.8417 39.8729 14.55 38.9166 13.3021 37.9916C12.675 37.527 12.0396 37.0541 11.3 36.6624C11.4604 36.8791 11.6187 37.102 11.7792 37.3249C13.3417 39.4979 15.1104 41.9624 17.7104 41.9624H19.7938C20.3688 41.9624 20.8354 42.4291 20.8354 43.0041V48.6708C20.8354 48.9874 20.6917 49.2854 20.4458 49.4833C20.1979 49.6791 19.8771 49.752 19.5687 49.6874C8.22917 47.1708 0 36.9145 0 25.2958C0 11.5104 11.2146 0.295776 25 0.295776C38.7854 0.295776 50 11.5104 50 25.2958C50 36.9124 41.7708 47.1708 30.4333 49.6874C30.3583 49.7041 30.2833 49.7124 30.2083 49.7124ZM30.7458 36.9604C31.0875 38.0374 31.25 39.3291 31.25 40.9208V47.3333C40.9812 44.5708 47.9167 35.5062 47.9167 25.2958C47.9167 12.6604 37.6354 2.37911 25 2.37911C12.3646 2.37911 2.08333 12.6604 2.08333 25.2958C2.08333 35.5062 9.01875 44.5708 18.75 47.3333V44.0458H17.7083C14.0417 44.0458 11.8479 40.9937 10.0854 38.5395C9.0875 37.1499 8.05417 35.7124 7.29167 35.7124C6.71667 35.7124 6.25 35.2458 6.25 34.6708C6.25 34.0958 6.71667 33.6291 7.29167 33.6291C10.9167 33.6291 12.9271 35.1187 14.5417 36.3166C15.6583 37.1437 16.5375 37.7958 17.7083 37.7958C17.825 37.802 18.2562 37.8333 18.4979 37.6166C18.6958 37.4374 18.7458 37.0812 18.75 36.7999C12.4875 34.7437 8.33333 29.7833 8.33333 24.2562C8.33333 21.4145 9.4 18.7145 11.425 16.4104C10.5313 13.8208 11.0833 10.6583 12.8042 8.93536C13.0646 8.67286 13.4437 8.56661 13.8062 8.66452C15.1979 9.03327 17.2646 10.1145 18.8083 11.6874C22.7771 10.3937 27.2167 10.3937 31.1854 11.6874C32.7292 10.1145 34.7958 9.03327 36.1875 8.66452C36.5479 8.56661 36.9271 8.67077 37.1896 8.93536C38.9125 10.6583 39.4625 13.8208 38.5687 16.4083C40.6 18.7145 41.6667 21.4145 41.6667 24.2541C41.6667 29.9374 37.2354 35.0249 30.7458 36.9604Z" fill="white"/>
<rect width="50" height="50" stroke="#C70101"/>
</svg>
